<svg id="Capa_1" data-name="Capa 1" xmlns="http://www.w3.org/2000/svg" viewBox="0 0 1054.48 416.25"><title>logo_fupaMesa de trabajo 1</title><path d="M458.68,99.64q-9.56-7.87-23.83-7.9-20,0-29.86,13.28t-9.92,33.33q0,17.94,9.39,30.22t26,12.27q20.89,0,30.22-10.5Q460.7,133.62,458.68,99.64Zm114.6,39q-22.2,0-33.76,3.3-19.35,5.93-19.34,22.55,0,16,22.64,16,19.48,0,31-9.67Q573.28,152.87,573.28,138.59ZM458.68,99.64q-9.56-7.87-23.83-7.9-20,0-29.86,13.28t-9.92,33.33q0,17.94,9.39,30.22t26,12.27q20.89,0,30.22-10.5Q460.7,133.62,458.68,99.64Zm114.6,39q-22.2,0-33.76,3.3-19.35,5.93-19.34,22.55,0,16,22.64,16,19.48,0,31-9.67Q573.28,152.87,573.28,138.59ZM458.68,99.64q-9.56-7.87-23.83-7.9-20,0-29.86,13.28t-9.92,33.33q0,17.94,9.39,30.22t26,12.27q20.89,0,30.22-10.5Q460.7,133.62,458.68,99.64Zm114.6,39q-22.2,0-33.76,3.3-19.35,5.93-19.34,22.55,0,16,22.64,16,19.48,0,31-9.67Q573.28,152.87,573.28,138.59ZM458.68,99.64q-9.56-7.87-23.83-7.9-20,0-29.86,13.28t-9.92,33.33q0,17.94,9.39,30.22t26,12.27q20.89,0,30.22-10.5Q460.7,133.62,458.68,99.64Zm114.6,39q-22.2,0-33.76,3.3-19.35,5.93-19.34,22.55,0,16,22.64,16,19.48,0,31-9.67Q573.28,152.87,573.28,138.59ZM458.68,99.64q-9.56-7.87-23.83-7.9-20,0-29.86,13.28t-9.92,33.33q0,17.94,9.39,30.22t26,12.27q20.89,0,30.22-10.5Q460.7,133.62,458.68,99.64Zm114.6,39q-22.2,0-33.76,3.3-19.35,5.93-19.34,22.55,0,16,22.64,16,19.48,0,31-9.67Q573.28,152.87,573.28,138.59ZM458.68,99.64q-9.56-7.87-23.83-7.9-20,0-29.86,13.28t-9.92,33.33q0,17.94,9.39,30.22t26,12.27q20.89,0,30.22-10.5Q460.7,133.62,458.68,99.64Zm114.6,39q-22.2,0-33.76,3.3-19.35,5.93-19.34,22.55,0,16,22.64,16,19.48,0,31-9.67Q573.28,152.87,573.28,138.59ZM458.68,99.64q-9.56-7.87-23.83-7.9-20,0-29.86,13.28t-9.92,33.33q0,17.94,9.39,30.22t26,12.27q20.89,0,30.22-10.5Q460.7,133.62,458.68,99.64Zm114.6,39q-22.2,0-33.76,3.3-19.35,5.93-19.34,22.55,0,16,22.64,16,19.48,0,31-9.67Q573.28,152.87,573.28,138.59Zm276.8-33q-9.26-14.34-26.37-14.33t-26.14,13.57q-9.15,13.57-9.14,31.51,0,18.54,9.26,32.8t26.49,14.29q17,0,26.09-13.63t9.07-31.46Q859.34,120,850.08,105.6Zm-391.4-6q-9.56-7.87-23.83-7.9-20,0-29.86,13.28t-9.92,33.33q0,17.94,9.39,30.22t26,12.27q20.89,0,30.22-10.5Q460.7,133.62,458.68,99.64Zm114.6,39q-22.2,0-33.76,3.3-19.35,5.93-19.34,22.55,0,16,22.64,16,19.48,0,31-9.67Q573.28,152.87,573.28,138.59Zm276.8-33q-9.26-14.34-26.37-14.33t-26.14,13.57q-9.15,13.57-9.14,31.51,0,18.54,9.26,32.8t26.49,14.29q17,0,26.09-13.63t9.07-31.46Q859.34,120,850.08,105.6Zm-391.4-6q-9.56-7.87-23.83-7.9-20,0-29.86,13.28t-9.92,33.33q0,17.94,9.39,30.22t26,12.27q20.89,0,30.22-10.5Q460.7,133.62,458.68,99.64Zm114.6,39q-22.2,0-33.76,3.3-19.35,5.93-19.34,22.55,0,16,22.64,16,19.48,0,31-9.67Q573.28,152.87,573.28,138.59Zm276.8-33q-9.26-14.34-26.37-14.33t-26.14,13.57q-9.15,13.57-9.14,31.51,0,18.54,9.26,32.8t26.49,14.29q17,0,26.09-13.63t9.07-31.46Q859.34,120,850.08,105.6ZM984.73,295q-38.18,0-38.16,17.89c0,8.2,5.58,12.32,16.79,12.32q13.2,0,22.06-6.12Q984.73,305.11,984.73,295Zm0,0q-38.18,0-38.16,17.89c0,8.2,5.58,12.32,16.79,12.32q13.2,0,22.06-6.12Q984.73,305.11,984.73,295Zm-526-195.33q-9.56-7.87-23.83-7.9-20,0-29.86,13.28t-9.92,33.33q0,17.94,9.39,30.22t26,12.27q20.89,0,30.22-10.5Q460.7,133.62,458.68,99.64Zm114.6,39q-22.2,0-33.76,3.3-19.35,5.93-19.34,22.55,0,16,22.64,16,19.48,0,31-9.67Q573.28,152.87,573.28,138.59Zm276.8-33q-9.26-14.34-26.37-14.33t-26.14,13.57q-9.15,13.57-9.14,31.51,0,18.54,9.26,32.8t26.49,14.29q17,0,26.09-13.63t9.07-31.46Q859.34,120,850.08,105.6Zm-391.4-6q-9.56-7.87-23.83-7.9-20,0-29.86,13.28t-9.92,33.33q0,17.94,9.39,30.22t26,12.27q20.89,0,30.22-10.5Q460.7,133.62,458.68,99.64Zm114.6,39q-22.2,0-33.76,3.3-19.35,5.93-19.34,22.55,0,16,22.64,16,19.48,0,31-9.67Q573.28,152.87,573.28,138.59ZM782.87,295q-38.19,0-38.18,17.89,0,12.3,16.79,12.32,13.23,0,22-6.12Q782.87,305.11,782.87,295ZM850.08,105.6q-9.26-14.34-26.37-14.33t-26.14,13.57q-9.15,13.57-9.14,31.51,0,18.54,9.26,32.8t26.49,14.29q17,0,26.09-13.63t9.07-31.46Q859.34,120,850.08,105.6ZM984.73,295q-38.18,0-38.16,17.89c0,8.2,5.58,12.32,16.79,12.32q13.2,0,22.06-6.12Q984.73,305.11,984.73,295Zm0,0q-38.18,0-38.16,17.89c0,8.2,5.58,12.32,16.79,12.32q13.2,0,22.06-6.12Q984.73,305.11,984.73,295Zm-201.86,0q-38.19,0-38.18,17.89,0,12.3,16.79,12.32,13.23,0,22-6.12Q782.87,305.11,782.87,295ZM458.68,99.64q-9.56-7.87-23.83-7.9-20,0-29.86,13.28t-9.92,33.33q0,17.94,9.39,30.22t26,12.27q20.89,0,30.22-10.5Q460.7,133.62,458.68,99.64Zm114.6,39q-22.2,0-33.76,3.3-19.35,5.93-19.34,22.55,0,16,22.64,16,19.48,0,31-9.67Q573.28,152.87,573.28,138.59Zm276.8-33q-9.26-14.34-26.37-14.33t-26.14,13.57q-9.15,13.57-9.14,31.51,0,18.54,9.26,32.8t26.49,14.29q17,0,26.09-13.63t9.07-31.46Q859.34,120,850.08,105.6ZM443,295q-38.19,0-38.17,17.89,0,12.3,16.79,12.32,13.2,0,22.06-6.12Q443,305.11,443,295ZM458.68,99.64q-9.56-7.87-23.83-7.9-20,0-29.86,13.28t-9.92,33.33q0,17.94,9.39,30.22t26,12.27q20.89,0,30.22-10.5Q460.7,133.62,458.68,99.64ZM550.55,259.3a25.33,25.33,0,0,0-29.62-.16q-6.31,4.71-6.31,13.8t6.48,14a24.86,24.86,0,0,0,15.12,4.75,24,24,0,0,0,14.5-4.6q6.33-4.59,6.33-13.61C557.05,267.27,554.88,262.54,550.55,259.3Zm13.38,88.21q-6.33-3.4-21.78-3.42-12.54,0-25.3-1c-6.56,3.59-9.85,8.92-9.85,16q0,19.84,28.66,19.84,16,0,25.31-5.59t9.28-14.78Q570.25,350.92,563.93,347.51Zm9.35-208.92q-22.2,0-33.76,3.3-19.35,5.93-19.34,22.55,0,16,22.64,16,19.48,0,31-9.67Q573.28,152.87,573.28,138.59ZM600,243.26c0,.28.05.56.08.83l.1-.83ZM782.87,295q-38.19,0-38.18,17.89,0,12.3,16.79,12.32,13.23,0,22-6.12Q782.87,305.11,782.87,295ZM850.08,105.6q-9.26-14.34-26.37-14.33t-26.14,13.57q-9.15,13.57-9.14,31.51,0,18.54,9.26,32.8t26.49,14.29q17,0,26.09-13.63t9.07-31.46Q859.34,120,850.08,105.6ZM984.73,295q-38.18,0-38.16,17.89c0,8.2,5.58,12.32,16.79,12.32q13.2,0,22.06-6.12Q984.73,305.11,984.73,295Zm0,0q-38.18,0-38.16,17.89c0,8.2,5.58,12.32,16.79,12.32q13.2,0,22.06-6.12Q984.73,305.11,984.73,295Zm-201.86,0q-38.19,0-38.18,17.89,0,12.3,16.79,12.32,13.23,0,22-6.12Q782.87,305.11,782.87,295ZM600,243.26c0,.28.05.56.08.83l.1-.83ZM563.93,347.51q-6.33-3.4-21.78-3.42-12.54,0-25.3-1c-6.56,3.59-9.85,8.92-9.85,16q0,19.84,28.66,19.84,16,0,25.31-5.59t9.28-14.78Q570.25,350.92,563.93,347.51ZM550.55,259.3a25.33,25.33,0,0,0-29.62-.16q-6.31,4.71-6.31,13.8t6.48,14a24.86,24.86,0,0,0,15.12,4.75,24,24,0,0,0,14.5-4.6q6.33-4.59,6.33-13.61C557.05,267.27,554.88,262.54,550.55,259.3ZM458.68,99.64q-9.56-7.87-23.83-7.9-20,0-29.86,13.28t-9.92,33.33q0,17.94,9.39,30.22t26,12.27q20.89,0,30.22-10.5Q460.7,133.62,458.68,99.64ZM443,295q-38.19,0-38.17,17.89,0,12.3,16.79,12.32,13.2,0,22.06-6.12Q443,305.11,443,295ZM573.28,138.59q-22.2,0-33.76,3.3-19.35,5.93-19.34,22.55,0,16,22.64,16,19.48,0,31-9.67Q573.28,152.87,573.28,138.59Zm276.8-33q-9.26-14.34-26.37-14.33t-26.14,13.57q-9.15,13.57-9.14,31.51,0,18.54,9.26,32.8t26.49,14.29q17,0,26.09-13.63t9.07-31.46Q859.34,120,850.08,105.6ZM251.18,295Q213,295,213,312.86q0,12.3,16.81,12.32,13.2,0,22-6.12Q251.19,305.11,251.18,295ZM443,295q-38.19,0-38.17,17.89,0,12.3,16.79,12.32,13.2,0,22.06-6.12Q443,305.11,443,295ZM458.68,99.64q-9.56-7.87-23.83-7.9-20,0-29.86,13.28t-9.92,33.33q0,17.94,9.39,30.22t26,12.27q20.89,0,30.22-10.5Q460.7,133.62,458.68,99.64ZM550.55,259.3a25.33,25.33,0,0,0-29.62-.16q-6.31,4.71-6.31,13.8t6.48,14a24.86,24.86,0,0,0,15.12,4.75,24,24,0,0,0,14.5-4.6q6.33-4.59,6.33-13.61C557.05,267.27,554.88,262.54,550.55,259.3Zm13.38,88.21q-6.33-3.4-21.78-3.42-12.54,0-25.3-1c-6.56,3.59-9.85,8.92-9.85,16q0,19.84,28.66,19.84,16,0,25.31-5.59t9.28-14.78Q570.25,350.92,563.93,347.51Zm9.35-208.92q-22.2,0-33.76,3.3-19.35,5.93-19.34,22.55,0,16,22.64,16,19.48,0,31-9.67Q573.28,152.87,573.28,138.59ZM600,243.26c0,.28.05.56.08.83l.1-.83ZM782.87,295q-38.19,0-38.18,17.89,0,12.3,16.79,12.32,13.23,0,22-6.12Q782.87,305.11,782.87,295ZM850.08,105.6q-9.26-14.34-26.37-14.33t-26.14,13.57q-9.15,13.57-9.14,31.51,0,18.54,9.26,32.8t26.49,14.29q17,0,26.09-13.63t9.07-31.46Q859.34,120,850.08,105.6ZM984.73,295q-38.18,0-38.16,17.89c0,8.2,5.58,12.32,16.79,12.32q13.2,0,22.06-6.12Q984.73,305.11,984.73,295Zm0,0q-38.18,0-38.16,17.89c0,8.2,5.58,12.32,16.79,12.32q13.2,0,22.06-6.12Q984.73,305.11,984.73,295Zm-201.86,0q-38.19,0-38.18,17.89,0,12.3,16.79,12.32,13.23,0,22-6.12Q782.87,305.11,782.87,295ZM600,243.26c0,.28.05.56.08.83l.1-.83ZM563.93,347.51q-6.33-3.4-21.78-3.42-12.54,0-25.3-1c-6.56,3.59-9.85,8.92-9.85,16q0,19.84,28.66,19.84,16,0,25.31-5.59t9.28-14.78Q570.25,350.92,563.93,347.51Zm-42.83-60.6a24.86,24.86,0,0,0,15.12,4.75,24,24,0,0,0,14.5-4.6q6.33-4.59,6.33-13.61c0-6.18-2.17-10.91-6.5-14.15a25.33,25.33,0,0,0-29.62-.16q-6.31,4.71-6.31,13.8T521.1,286.91ZM458.68,99.64q-9.56-7.87-23.83-7.9-20,0-29.86,13.28t-9.92,33.33q0,17.94,9.39,30.22t26,12.27q20.89,0,30.22-10.5Q460.7,133.62,458.68,99.64ZM443,295q-38.19,0-38.17,17.89,0,12.3,16.79,12.32,13.2,0,22.06-6.12Q443,305.11,443,295Zm-191.78,0Q213,295,213,312.86q0,12.3,16.81,12.32,13.2,0,22-6.12Q251.19,305.11,251.18,295Zm322.1-156.38q-22.2,0-33.76,3.3-19.35,5.93-19.34,22.55,0,16,22.64,16,19.48,0,31-9.67Q573.28,152.87,573.28,138.59Zm276.8-33q-9.26-14.34-26.37-14.33t-26.14,13.57q-9.15,13.57-9.14,31.51,0,18.54,9.26,32.8t26.49,14.29q17,0,26.09-13.63t9.07-31.46Q859.34,120,850.08,105.6ZM988.93,0H65.55A65.55,65.55,0,0,0,0,65.55V350.69a65.56,65.56,0,0,0,65.55,65.56H988.93a65.55,65.55,0,0,0,65.55-65.56V65.55A65.55,65.55,0,0,0,988.93,0ZM920.48,79.11l2.24,14.4h.94Q941.14,77.7,961.08,77.7q19.59,0,30.32,8.67t10.75,30.86c0,1.5-.09,4.44-.23,8.86s-.24,7.34-.24,8.84q0,19.73.47,58.77H980.67q2.6-31,2.59-67.74,0-18.17-7.37-24.83t-21.06-6.67q-16.77,0-30.92,12.16,0,40.22.47,87.08H902.9q2-40.12,2-58a273.34,273.34,0,0,0-5.18-53.58Zm-89.22-33q10.62-17.53,10.62-18.84h25.49q0,1.43-16.29,18.89c-10.84,11.65-16.29,18.09-16.29,19.35H820.63Q820.63,63.65,831.26,46.14ZM785.53,93.51q17.4-17.12,40.89-17.11a52.23,52.23,0,0,1,37.65,15.17q15.69,15.15,15.7,42.65,0,30.22-17.36,47.15T821.59,198.3a52.73,52.73,0,0,1-37.7-15q-15.78-15-15.76-42.23Q768.13,110.61,785.53,93.51Zm-58.6-55.82q4-4.36,11.11-4.37a11.57,11.57,0,0,1,9.14,3.84,13.32,13.32,0,0,1,3.36,9,15.3,15.3,0,0,1-3.9,10.45q-3.89,4.41-11,4.41c-4,0-7.12-1.27-9.37-3.83A13.56,13.56,0,0,1,722.92,48,14.71,14.71,0,0,1,726.93,37.69Zm18.41,41.66q-1.43,24.68-1.4,60.43,0,28.31,1.64,53.92H724.22q1.65-23.59,1.66-53.92,0-34.12-4.13-57.24ZM565.9,99.3q-7.73-4.85-23.42-4.84A146.14,146.14,0,0,0,506,99.06l2-16.29q17.7-5.05,40.7-5.07,21,0,32.46,8.67t11.45,29.56q0,5.55-.53,20.12c-.36,9.73-.54,16.19-.54,19.42a205.51,205.51,0,0,0,3.2,38.23l-18.53.71a45.83,45.83,0,0,1-1.42-11h-1.18q-14.52,13.23-39.54,13.22a35.83,35.83,0,0,1-23.36-8q-9.8-8-9.8-22.71,0-18.18,15.35-29.21t57-11.63a53.85,53.85,0,0,0,.35-6.48Q573.63,104.13,565.9,99.3ZM270.21,79.11l2.24,14.4h.95Q290.86,77.7,310.8,77.7q19.59,0,30.34,8.67t10.74,30.86c0,1.5-.09,4.44-.24,8.86s-.23,7.34-.23,8.84q0,19.73.47,58.77H330.41Q333,162.67,333,126q0-18.17-7.37-24.83t-21.06-6.67q-16.76,0-30.92,12.16,0,40.22.47,87.08H252.64q2-40.12,2-58a271.82,271.82,0,0,0-5.2-53.58ZM149,81.35q-1.42,22.79-1.42,39,0,37.17,4.79,48.44T173.91,180q18.89,0,31.16-9.44,0-65.61-1.18-88.39l21.24-.83q-.94,22.19-.94,61.37a506.65,506.65,0,0,0,2.59,50.87l-18.29.71a46.89,46.89,0,0,1-1.65-10.86h-1.18Q190,196.67,167.54,196.66q-20.43,0-29.68-9.86t-9.27-39.71c0-2.84.09-7,.24-12.63s.23-9.4.23-11.44q0-17.37-2-40.84Zm-111.76,19L38.08,83q16.29.94,24.3.95,0-31.27,8.74-45.5T99,24.25a81.83,81.83,0,0,1,17.59,2l-3.43,15.57A58.62,58.62,0,0,0,99,40.05q-10.86,0-14.7,8.56T80.44,84q11.69,0,32.69-1.19l-.7,17.59q-23.85-.7-32-.72,0,53.71,1.41,94.06H60.74q1.65-39.28,1.64-94.06Q55.2,99.64,37.25,100.36Zm123.8,226.36q-13.86,16.95-38,17-17.91,0-24.63-7H97.13q0,25.34.78,51.29H67.47q2-29.68,2-68.45,0-50.07-5.83-76.33l28.66-2.9L94,249.17h1.79q12-10.24,32.57-10.25,21.49,0,34,14.33t12.54,34.08A60.3,60.3,0,0,1,161.05,326.72Zm94.27,14.69a20.82,20.82,0,0,1-1.8-7.86h-1.44q-12.33,9.7-33.25,9.71-14,0-23.23-7.18A23,23,0,0,1,186.36,317q0-15.72,14.38-25.76t50.44-10.64a31.76,31.76,0,0,0,.23-3.52q0-11.16-5.83-14.73t-21.38-3.57a132.34,132.34,0,0,0-33,4.13l2.47-19q15.23-4.86,43-4.86,20.28,0,31.29,7.86t11,27.51c0,2.88-.13,8.17-.38,15.81s-.41,12.76-.41,15.32q0,21.39,3.59,35.05Zm110.73-74.77a47.58,47.58,0,0,0-16.8-3.1q-16.46,0-21.72,13.64,0,41.26.68,63.5H298.43q1.9-31.12,1.9-50.88a188.44,188.44,0,0,0-5.6-46.64l28.55-2.9c1.27,7.59,1.91,12,1.91,13.35H327Q337.29,239,354.41,239a57.06,57.06,0,0,1,18.13,3.41Zm81.06,74.77a20.82,20.82,0,0,1-1.8-7.86h-1.45q-12.32,9.7-33.26,9.71-14,0-23.23-7.18A23,23,0,0,1,378.14,317q0-15.72,14.39-25.76T443,280.6a29.41,29.41,0,0,0,.22-3.52q0-11.16-5.82-14.73T416,258.78a132.2,132.2,0,0,0-33,4.13l2.45-19q15.24-4.86,43-4.86,20.25,0,31.29,7.86t11,27.51c0,2.88-.13,8.17-.39,15.81s-.4,12.76-.4,15.32q0,21.39,3.59,35.05Zm15-147.24a57.6,57.6,0,0,1-.94-10.73h-1.3Q447.48,196.9,423,196.89q-22.41,0-35.69-16.28t-13.27-39.3q0-26.09,14.74-45t41.55-18.87q19.13,0,27.38,7.79h.94q0-29.28-1.64-57.48L479.46,27q-2.25,30-2.25,78.48,0,49.33,2.47,88.16ZM676.84,341.41a31.49,31.49,0,0,1-1.78-8.9h-1.79Q658.59,343.67,639,343.68q-18.48,0-27.82-8.95T601.83,299c0-2.13.07-5.13.17-9s.17-7.24.17-10.14q0-11.28-2-35.78l-.43,3.32q-17.45,0-21.82,4.64v1.36a26.1,26.1,0,0,1,6.6,17.37q0,14.79-11.81,25.23t-35.21,10.43a87,87,0,0,1-18.69-1.64c-4,1.64-5.94,3.83-5.94,6.52q0,6.3,7.11,8.83T553,322.69q44.9,0,44.89,28.23,0,19.84-18.69,31.54t-45.46,11.68q-52.38,0-52.38-30.4a23.11,23.11,0,0,1,5.87-16,24,24,0,0,1,13.6-8v-1.56q-9.4-5.46-9.4-16.74t12.88-19V301q-18.13-8.37-18.15-26.16,0-15.21,12.49-25.45t38.56-10.23q17.81,0,28.89,6.21h1.57q3.24-19.54,21.72-19.55a31.81,31.81,0,0,1,12.76,2.39l-1.94,15.08,31.06-1q-1.78,19.84-1.79,37.63,0,25.35,4.09,34.13t16.06,8.79q13.1,0,22.62-5.79,0-54.39-1.35-73.84l30.24-.92Q700,261.79,700,292.9a390.3,390.3,0,0,0,3,47.68Zm27.66-150q-9.54,5.44-25.6,5.43-30.57,0-46.74-16.88T616,139.31q0-25.28,17-43.44T678,77.7q14,0,22.89,2.83l-3.19,18.53a71.6,71.6,0,0,0-25.13-4.6q-16.77,0-26.68,11.68T636,135.41q0,19.11,11.79,31.86T681.14,180q8.85,0,24.55-4.36Zm82.5,150a21,21,0,0,1-1.79-7.86h-1.45q-12.3,9.7-33.25,9.71-14,0-23.22-7.18A22.94,22.94,0,0,1,718.05,317q0-15.72,14.39-25.76t50.43-10.64a31.65,31.65,0,0,0,.22-3.52q0-11.16-5.82-14.73t-21.39-3.57a132.2,132.2,0,0,0-33,4.13l2.46-19q15.24-4.86,43-4.86,20.25,0,31.29,7.86t11,27.51c0,2.88-.13,8.17-.4,15.81s-.38,12.76-.38,15.32q0,21.39,3.58,35.05ZM901.1,285q-18.24,41.28-22.5,56.27Q871.31,367.16,859,377q-11.87,9.52-35.6,9.51l-2.25-19.95q13.89,0,22.85-7.3t9-19.49q0-12.3-20.16-53.82t-20.15-43.49h34.59q0,3.62,10.19,35.06T867.63,316h1.57q0-6,9.23-35.4t9.23-38.12h29.45Q917.11,249.16,901.1,285Zm87.79,56.37a20.82,20.82,0,0,1-1.8-7.86h-1.46q-12.3,9.7-33.25,9.71-14,0-23.23-7.18A23,23,0,0,1,919.92,317q0-15.72,14.37-25.76t50.44-10.64a27.55,27.55,0,0,0,.23-3.52q0-11.16-5.82-14.73t-21.39-3.57a132.07,132.07,0,0,0-33,4.13l2.45-19q15.22-4.86,43-4.86,20.27,0,31.29,7.86t11,27.51c0,2.88-.13,8.17-.4,15.81s-.39,12.76-.39,15.32q0,21.39,3.57,35.05Zm-42.32-28.55c0,8.2,5.58,12.32,16.79,12.32q13.2,0,22.06-6.12-.69-13.95-.69-24.09Q946.56,295,946.57,312.86ZM824.18,183.44q17,0,26.09-13.63t9.07-31.46q0-18.39-9.26-32.75T823.71,91.27q-17,0-26.14,13.57t-9.14,31.51q0,18.54,9.26,32.8T824.18,183.44ZM744.69,312.86q0,12.3,16.79,12.32,13.23,0,22-6.12-.66-13.95-.66-24.09Q744.68,295,744.69,312.86ZM600,243.26c0,.28.05.56.08.83l.1-.83ZM539.52,141.89q-19.35,5.93-19.34,22.55,0,16,22.64,16,19.48,0,31-9.67-.58-17.94-.58-32.22Q551.08,138.59,539.52,141.89ZM507,359.1q0,19.84,28.66,19.84,16,0,25.31-5.59t9.28-14.78q0-7.65-6.32-11.06t-21.78-3.42q-12.54,0-25.3-1C510.29,346.65,507,352,507,359.1Zm43.55-99.8a25.33,25.33,0,0,0-29.62-.16q-6.31,4.71-6.31,13.8t6.48,14a24.86,24.86,0,0,0,15.12,4.75,24,24,0,0,0,14.5-4.6q6.33-4.59,6.33-13.61C557.05,267.27,554.88,262.54,550.55,259.3ZM434.85,91.74q-20,0-29.86,13.28t-9.92,33.33q0,17.94,9.39,30.22t26,12.27q20.89,0,30.22-10.5,0-36.72-2-70.7Q449.13,91.77,434.85,91.74ZM404.79,312.86q0,12.3,16.79,12.32,13.2,0,22.06-6.12Q443,305.11,443,295,404.77,295,404.79,312.86Zm-191.79,0q0,12.3,16.81,12.32,13.2,0,22-6.12-.66-13.95-.67-24.09Q213,295,213,312.86Zm-94.38-54.69q-15.44,0-22.61,8.37,1.68,29.06,1.68,53.25,7.05,5.08,18.26,5.07,14.86,0,22-10.19T145.16,290q0-13-7-22.44T118.62,258.17ZM850.08,105.6q-9.26-14.34-26.37-14.33t-26.14,13.57q-9.15,13.57-9.14,31.51,0,18.54,9.26,32.8t26.49,14.29q17,0,26.09-13.63t9.07-31.46Q859.34,120,850.08,105.6Zm-276.8,33q-22.2,0-33.76,3.3-19.35,5.93-19.34,22.55,0,16,22.64,16,19.48,0,31-9.67Q573.28,152.87,573.28,138.59ZM443,295q-38.19,0-38.17,17.89,0,12.3,16.79,12.32,13.2,0,22.06-6.12Q443,305.11,443,295ZM458.68,99.64q-9.56-7.87-23.83-7.9-20,0-29.86,13.28t-9.92,33.33q0,17.94,9.39,30.22t26,12.27q20.89,0,30.22-10.5Q460.7,133.62,458.68,99.64ZM550.55,259.3a25.33,25.33,0,0,0-29.62-.16q-6.31,4.71-6.31,13.8t6.48,14a24.86,24.86,0,0,0,15.12,4.75,24,24,0,0,0,14.5-4.6q6.33-4.59,6.33-13.61C557.05,267.27,554.88,262.54,550.55,259.3Zm13.38,88.21q-6.33-3.4-21.78-3.42-12.54,0-25.3-1c-6.56,3.59-9.85,8.92-9.85,16q0,19.84,28.66,19.84,16,0,25.31-5.59t9.28-14.78Q570.25,350.92,563.93,347.51ZM600,243.26c0,.28.05.56.08.83l.1-.83ZM782.87,295q-38.19,0-38.18,17.89,0,12.3,16.79,12.32,13.23,0,22-6.12Q782.87,305.11,782.87,295Zm201.86,0q-38.18,0-38.16,17.89c0,8.2,5.58,12.32,16.79,12.32q13.2,0,22.06-6.12Q984.73,305.11,984.73,295Zm0,0q-38.18,0-38.16,17.89c0,8.2,5.58,12.32,16.79,12.32q13.2,0,22.06-6.12Q984.73,305.11,984.73,295ZM850.08,105.6q-9.26-14.34-26.37-14.33t-26.14,13.57q-9.15,13.57-9.14,31.51,0,18.54,9.26,32.8t26.49,14.29q17,0,26.09-13.63t9.07-31.46Q859.34,120,850.08,105.6ZM782.87,295q-38.19,0-38.18,17.89,0,12.3,16.79,12.32,13.23,0,22-6.12Q782.87,305.11,782.87,295ZM600,243.26c0,.28.05.56.08.83l.1-.83ZM573.28,138.59q-22.2,0-33.76,3.3-19.35,5.93-19.34,22.55,0,16,22.64,16,19.48,0,31-9.67Q573.28,152.87,573.28,138.59Zm-9.35,208.92q-6.33-3.4-21.78-3.42-12.54,0-25.3-1c-6.56,3.59-9.85,8.92-9.85,16q0,19.84,28.66,19.84,16,0,25.31-5.59t9.28-14.78Q570.25,350.92,563.93,347.51ZM550.55,259.3a25.33,25.33,0,0,0-29.62-.16q-6.31,4.71-6.31,13.8t6.48,14a24.86,24.86,0,0,0,15.12,4.75,24,24,0,0,0,14.5-4.6q6.33-4.59,6.33-13.61C557.05,267.27,554.88,262.54,550.55,259.3ZM458.68,99.64q-9.56-7.87-23.83-7.9-20,0-29.86,13.28t-9.92,33.33q0,17.94,9.39,30.22t26,12.27q20.89,0,30.22-10.5Q460.7,133.62,458.68,99.64ZM443,295q-38.19,0-38.17,17.89,0,12.3,16.79,12.32,13.2,0,22.06-6.12Q443,305.11,443,295ZM850.08,105.6q-9.26-14.34-26.37-14.33t-26.14,13.57q-9.15,13.57-9.14,31.51,0,18.54,9.26,32.8t26.49,14.29q17,0,26.09-13.63t9.07-31.46Q859.34,120,850.08,105.6Zm-276.8,33q-22.2,0-33.76,3.3-19.35,5.93-19.34,22.55,0,16,22.64,16,19.48,0,31-9.67Q573.28,152.87,573.28,138.59ZM458.68,99.64q-9.56-7.87-23.83-7.9-20,0-29.86,13.28t-9.92,33.33q0,17.94,9.39,30.22t26,12.27q20.89,0,30.22-10.5Q460.7,133.62,458.68,99.64ZM550.55,259.3a25.33,25.33,0,0,0-29.62-.16q-6.31,4.71-6.31,13.8t6.48,14a24.86,24.86,0,0,0,15.12,4.75,24,24,0,0,0,14.5-4.6q6.33-4.59,6.33-13.61C557.05,267.27,554.88,262.54,550.55,259.3Zm13.38,88.21q-6.33-3.4-21.78-3.42-12.54,0-25.3-1c-6.56,3.59-9.85,8.92-9.85,16q0,19.84,28.66,19.84,16,0,25.31-5.59t9.28-14.78Q570.25,350.92,563.93,347.51ZM600,243.26c0,.28.05.56.08.83l.1-.83ZM782.87,295q-38.19,0-38.18,17.89,0,12.3,16.79,12.32,13.23,0,22-6.12Q782.87,305.11,782.87,295Zm201.86,0q-38.18,0-38.16,17.89c0,8.2,5.58,12.32,16.79,12.32q13.2,0,22.06-6.12Q984.73,305.11,984.73,295Zm0,0q-38.18,0-38.16,17.89c0,8.2,5.58,12.32,16.79,12.32q13.2,0,22.06-6.12Q984.73,305.11,984.73,295ZM850.08,105.6q-9.26-14.34-26.37-14.33t-26.14,13.57q-9.15,13.57-9.14,31.51,0,18.54,9.26,32.8t26.49,14.29q17,0,26.09-13.63t9.07-31.46Q859.34,120,850.08,105.6ZM782.87,295q-38.19,0-38.18,17.89,0,12.3,16.79,12.32,13.23,0,22-6.12Q782.87,305.11,782.87,295ZM600,243.26c0,.28.05.56.08.83l.1-.83ZM573.28,138.59q-22.2,0-33.76,3.3-19.35,5.93-19.34,22.55,0,16,22.64,16,19.48,0,31-9.67Q573.28,152.87,573.28,138.59Zm-9.35,208.92q-6.33-3.4-21.78-3.42-12.54,0-25.3-1c-6.56,3.59-9.85,8.92-9.85,16q0,19.84,28.66,19.84,16,0,25.31-5.59t9.28-14.78Q570.25,350.92,563.93,347.51ZM550.55,259.3a25.33,25.33,0,0,0-29.62-.16q-6.31,4.71-6.31,13.8t6.48,14a24.86,24.86,0,0,0,15.12,4.75,24,24,0,0,0,14.5-4.6q6.33-4.59,6.33-13.61C557.05,267.27,554.88,262.54,550.55,259.3ZM458.68,99.64q-9.56-7.87-23.83-7.9-20,0-29.86,13.28t-9.92,33.33q0,17.94,9.39,30.22t26,12.27q20.89,0,30.22-10.5Q460.7,133.62,458.68,99.64Zm391.4,6q-9.26-14.34-26.37-14.33t-26.14,13.57q-9.15,13.57-9.14,31.51,0,18.54,9.26,32.8t26.49,14.29q17,0,26.09-13.63t9.07-31.46Q859.34,120,850.08,105.6Zm-276.8,33q-22.2,0-33.76,3.3-19.35,5.93-19.34,22.55,0,16,22.64,16,19.48,0,31-9.67Q573.28,152.87,573.28,138.59ZM458.68,99.64q-9.56-7.87-23.83-7.9-20,0-29.86,13.28t-9.92,33.33q0,17.94,9.39,30.22t26,12.27q20.89,0,30.22-10.5Q460.7,133.62,458.68,99.64ZM782.87,295q-38.19,0-38.18,17.89,0,12.3,16.79,12.32,13.23,0,22-6.12Q782.87,305.11,782.87,295Zm201.86,0q-38.18,0-38.16,17.89c0,8.2,5.58,12.32,16.79,12.32q13.2,0,22.06-6.12Q984.73,305.11,984.73,295Zm0,0q-38.18,0-38.16,17.89c0,8.2,5.58,12.32,16.79,12.32q13.2,0,22.06-6.12Q984.73,305.11,984.73,295ZM850.08,105.6q-9.26-14.34-26.37-14.33t-26.14,13.57q-9.15,13.57-9.14,31.51,0,18.54,9.26,32.8t26.49,14.29q17,0,26.09-13.63t9.07-31.46Q859.34,120,850.08,105.6ZM782.87,295q-38.19,0-38.18,17.89,0,12.3,16.79,12.32,13.23,0,22-6.12Q782.87,305.11,782.87,295ZM573.28,138.59q-22.2,0-33.76,3.3-19.35,5.93-19.34,22.55,0,16,22.64,16,19.48,0,31-9.67Q573.28,152.87,573.28,138.59ZM458.68,99.64q-9.56-7.87-23.83-7.9-20,0-29.86,13.28t-9.92,33.33q0,17.94,9.39,30.22t26,12.27q20.89,0,30.22-10.5Q460.7,133.62,458.68,99.64Zm391.4,6q-9.26-14.34-26.37-14.33t-26.14,13.57q-9.15,13.57-9.14,31.51,0,18.54,9.26,32.8t26.49,14.29q17,0,26.09-13.63t9.07-31.46Q859.34,120,850.08,105.6Zm-276.8,33q-22.2,0-33.76,3.3-19.35,5.93-19.34,22.55,0,16,22.64,16,19.48,0,31-9.67Q573.28,152.87,573.28,138.59ZM458.68,99.64q-9.56-7.87-23.83-7.9-20,0-29.86,13.28t-9.92,33.33q0,17.94,9.39,30.22t26,12.27q20.89,0,30.22-10.5Q460.7,133.62,458.68,99.64Zm391.4,6q-9.26-14.34-26.37-14.33t-26.14,13.57q-9.15,13.57-9.14,31.51,0,18.54,9.26,32.8t26.49,14.29q17,0,26.09-13.63t9.07-31.46Q859.34,120,850.08,105.6Zm-276.8,33q-22.2,0-33.76,3.3-19.35,5.93-19.34,22.55,0,16,22.64,16,19.48,0,31-9.67Q573.28,152.87,573.28,138.59ZM458.68,99.64q-9.56-7.87-23.83-7.9-20,0-29.86,13.28t-9.92,33.33q0,17.94,9.39,30.22t26,12.27q20.89,0,30.22-10.5Q460.7,133.62,458.68,99.64Zm391.4,6q-9.26-14.34-26.37-14.33t-26.14,13.57q-9.15,13.57-9.14,31.51,0,18.54,9.26,32.8t26.49,14.29q17,0,26.09-13.63t9.07-31.46Q859.34,120,850.08,105.6Zm-276.8,33q-22.2,0-33.76,3.3-19.35,5.93-19.34,22.55,0,16,22.64,16,19.48,0,31-9.67Q573.28,152.87,573.28,138.59ZM458.68,99.64q-9.56-7.87-23.83-7.9-20,0-29.86,13.28t-9.92,33.33q0,17.94,9.39,30.22t26,12.27q20.89,0,30.22-10.5Q460.7,133.62,458.68,99.64Zm391.4,6q-9.26-14.34-26.37-14.33t-26.14,13.57q-9.15,13.57-9.14,31.51,0,18.54,9.26,32.8t26.49,14.29q17,0,26.09-13.63t9.07-31.46Q859.34,120,850.08,105.6Zm-276.8,33q-22.2,0-33.76,3.3-19.35,5.93-19.34,22.55,0,16,22.64,16,19.48,0,31-9.67Q573.28,152.87,573.28,138.59ZM458.68,99.64q-9.56-7.87-23.83-7.9-20,0-29.86,13.28t-9.92,33.33q0,17.94,9.39,30.22t26,12.27q20.89,0,30.22-10.5Q460.7,133.62,458.68,99.64Zm114.6,39q-22.2,0-33.76,3.3-19.35,5.93-19.34,22.55,0,16,22.64,16,19.48,0,31-9.67Q573.28,152.87,573.28,138.59ZM458.68,99.64q-9.56-7.87-23.83-7.9-20,0-29.86,13.28t-9.92,33.33q0,17.94,9.39,30.22t26,12.27q20.89,0,30.22-10.5Q460.7,133.62,458.68,99.64Zm114.6,39q-22.2,0-33.76,3.3-19.35,5.93-19.34,22.55,0,16,22.64,16,19.48,0,31-9.67Q573.28,152.87,573.28,138.59ZM458.68,99.64q-9.56-7.87-23.83-7.9-20,0-29.86,13.28t-9.92,33.33q0,17.94,9.39,30.22t26,12.27q20.89,0,30.22-10.5Q460.7,133.62,458.68,99.64Zm114.6,39q-22.2,0-33.76,3.3-19.35,5.93-19.34,22.55,0,16,22.64,16,19.48,0,31-9.67Q573.28,152.87,573.28,138.59ZM458.68,99.64q-9.56-7.87-23.83-7.9-20,0-29.86,13.28t-9.92,33.33q0,17.94,9.39,30.22t26,12.27q20.89,0,30.22-10.5Q460.7,133.62,458.68,99.64Zm114.6,39q-22.2,0-33.76,3.3-19.35,5.93-19.34,22.55,0,16,22.64,16,19.48,0,31-9.67Q573.28,152.87,573.28,138.59ZM458.68,99.64q-9.56-7.87-23.83-7.9-20,0-29.86,13.28t-9.92,33.33q0,17.94,9.39,30.22t26,12.27q20.89,0,30.22-10.5Q460.7,133.62,458.68,99.64Zm0,0q-9.56-7.87-23.83-7.9-20,0-29.86,13.28t-9.92,33.33q0,17.94,9.39,30.22t26,12.27q20.89,0,30.22-10.5Q460.7,133.62,458.68,99.64Zm0,0q-9.56-7.87-23.83-7.9-20,0-29.86,13.28t-9.92,33.33q0,17.94,9.39,30.22t26,12.27q20.89,0,30.22-10.5Q460.7,133.62,458.68,99.64Z" fill="#558a51"/></svg>